# Blender v3.0.1 OBJ File: ''
# www.blender.org
mtllib gnomon_v1.mtl
o Cylinder
v 0.000000 0.000000 -0.150000
v 0.000000 2.000000 -0.150000
v 0.029264 0.000000 -0.147118
v 0.029264 2.000000 -0.147118
v 0.057403 0.000000 -0.138582
v 0.057403 2.000000 -0.138582
v 0.083336 0.000000 -0.124720
v 0.083336 2.000000 -0.124720
v 0.106066 0.000000 -0.106066
v 0.106066 2.000000 -0.106066
v 0.124720 0.000000 -0.083336
v 0.124720 2.000000 -0.083336
v 0.138582 0.000000 -0.057403
v 0.138582 2.000000 -0.057403
v 0.147118 0.000000 -0.029264
v 0.147118 2.000000 -0.029264
v 0.150000 0.000000 0.000000
v 0.150000 2.000000 0.000000
v 0.147118 0.000000 0.029264
v 0.147118 2.000000 0.029264
v 0.138582 0.000000 0.057403
v 0.138582 2.000000 0.057403
v 0.124720 0.000000 0.083336
v 0.124720 2.000000 0.083336
v 0.106066 0.000000 0.106066
v 0.106066 2.000000 0.106066
v 0.083336 0.000000 0.124720
v 0.083336 2.000000 0.124720
v 0.057403 0.000000 0.138582
v 0.057403 2.000000 0.138582
v 0.029264 0.000000 0.147118
v 0.029264 2.000000 0.147118
v -0.000000 0.000000 0.150000
v -0.000000 2.000000 0.150000
v -0.029264 0.000000 0.147118
v -0.029264 2.000000 0.147118
v -0.057403 0.000000 0.138582
v -0.057403 2.000000 0.138582
v -0.083336 0.000000 0.124720
v -0.083336 2.000000 0.124720
v -0.106066 0.000000 0.106066
v -0.106066 2.000000 0.106066
v -0.124720 0.000000 0.083336
v -0.124720 2.000000 0.083336
v -0.138582 0.000000 0.057403
v -0.138582 2.000000 0.057403
v -0.147118 0.000000 0.029264
v -0.147118 2.000000 0.029264
v -0.150000 0.000000 -0.000000
v -0.150000 2.000000 -0.000000
v -0.147118 0.000000 -0.029264
v -0.147118 2.000000 -0.029264
v -0.138582 0.000000 -0.057403
v -0.138582 2.000000 -0.057403
v -0.124720 0.000000 -0.083336
v -0.124720 2.000000 -0.083336
v -0.106066 0.000000 -0.106066
v -0.106066 2.000000 -0.106066
v -0.083336 0.000000 -0.124720
v -0.083336 2.000000 -0.124720
v -0.057403 0.000000 -0.138582
v -0.057403 2.000000 -0.138582
v -0.029264 0.000000 -0.147118
v -0.029264 2.000000 -0.147118
vt 1.000000 0.500000
vt 1.000000 1.000000
vt 0.968750 1.000000
vt 0.968750 0.500000
vt 0.937500 1.000000
vt 0.937500 0.500000
vt 0.906250 1.000000
vt 0.906250 0.500000
vt 0.875000 1.000000
vt 0.875000 0.500000
vt 0.843750 1.000000
vt 0.843750 0.500000
vt 0.812500 1.000000
vt 0.812500 0.500000
vt 0.781250 1.000000
vt 0.781250 0.500000
vt 0.750000 1.000000
vt 0.750000 0.500000
vt 0.718750 1.000000
vt 0.718750 0.500000
vt 0.687500 1.000000
vt 0.687500 0.500000
vt 0.656250 1.000000
vt 0.656250 0.500000
vt 0.625000 1.000000
vt 0.625000 0.500000
vt 0.593750 1.000000
vt 0.593750 0.500000
vt 0.562500 1.000000
vt 0.562500 0.500000
vt 0.531250 1.000000
vt 0.531250 0.500000
vt 0.500000 1.000000
vt 0.500000 0.500000
vt 0.468750 1.000000
vt 0.468750 0.500000
vt 0.437500 1.000000
vt 0.437500 0.500000
vt 0.406250 1.000000
vt 0.406250 0.500000
vt 0.375000 1.000000
vt 0.375000 0.500000
vt 0.343750 1.000000
vt 0.343750 0.500000
vt 0.312500 1.000000
vt 0.312500 0.500000
vt 0.281250 1.000000
vt 0.281250 0.500000
vt 0.250000 1.000000
vt 0.250000 0.500000
vt 0.218750 1.000000
vt 0.218750 0.500000
vt 0.187500 1.000000
vt 0.187500 0.500000
vt 0.156250 1.000000
vt 0.156250 0.500000
vt 0.125000 1.000000
vt 0.125000 0.500000
vt 0.093750 1.000000
vt 0.093750 0.500000
vt 0.062500 1.000000
vt 0.062500 0.500000
vt 0.296822 0.485388
vt 0.250000 0.490000
vt 0.203178 0.485388
vt 0.158156 0.471731
vt 0.116663 0.449553
vt 0.080294 0.419706
vt 0.050447 0.383337
vt 0.028269 0.341844
vt 0.014612 0.296822
vt 0.010000 0.250000
vt 0.014612 0.203178
vt 0.028269 0.158156
vt 0.050447 0.116663
vt 0.080294 0.080294
vt 0.116663 0.050447
vt 0.158156 0.028269
vt 0.203178 0.014612
vt 0.250000 0.010000
vt 0.296822 0.014612
vt 0.341844 0.028269
vt 0.383337 0.050447
vt 0.419706 0.080294
vt 0.449553 0.116663
vt 0.471731 0.158156
vt 0.485388 0.203178
vt 0.490000 0.250000
vt 0.485388 0.296822
vt 0.471731 0.341844
vt 0.449553 0.383337
vt 0.419706 0.419706
vt 0.383337 0.449553
vt 0.341844 0.471731
vt 0.031250 1.000000
vt 0.031250 0.500000
vt 0.000000 1.000000
vt 0.000000 0.500000
vt 0.750000 0.490000
vt 0.796822 0.485388
vt 0.841844 0.471731
vt 0.883337 0.449553
vt 0.919706 0.419706
vt 0.949553 0.383337
vt 0.971731 0.341844
vt 0.985388 0.296822
vt 0.990000 0.250000
vt 0.985388 0.203178
vt 0.971731 0.158156
vt 0.949553 0.116663
vt 0.919706 0.080294
vt 0.883337 0.050447
vt 0.841844 0.028269
vt 0.796822 0.014612
vt 0.750000 0.010000
vt 0.703178 0.014612
vt 0.658156 0.028269
vt 0.616663 0.050447
vt 0.580294 0.080294
vt 0.550447 0.116663
vt 0.528269 0.158156
vt 0.514612 0.203178
vt 0.510000 0.250000
vt 0.514612 0.296822
vt 0.528269 0.341844
vt 0.550447 0.383337
vt 0.580294 0.419706
vt 0.616663 0.449553
vt 0.658156 0.471731
vt 0.703178 0.485388
vn 0.0980 0.0000 -0.9952
vn 0.2903 0.0000 -0.9569
vn 0.4714 0.0000 -0.8819
vn 0.6344 0.0000 -0.7730
vn 0.7730 0.0000 -0.6344
vn 0.8819 0.0000 -0.4714
vn 0.9569 0.0000 -0.2903
vn 0.9952 0.0000 -0.0980
vn 0.9952 0.0000 0.0980
vn 0.9569 0.0000 0.2903
vn 0.8819 0.0000 0.4714
vn 0.7730 0.0000 0.6344
vn 0.6344 0.0000 0.7730
vn 0.4714 0.0000 0.8819
vn 0.2903 0.0000 0.9569
vn 0.0980 0.0000 0.9952
vn -0.0980 0.0000 0.9952
vn -0.2903 0.0000 0.9569
vn -0.4714 0.0000 0.8819
vn -0.6344 0.0000 0.7730
vn -0.7730 0.0000 0.6344
vn -0.8819 0.0000 0.4714
vn -0.9569 0.0000 0.2903
vn -0.9952 0.0000 0.0980
vn -0.9952 0.0000 -0.0980
vn -0.9569 0.0000 -0.2903
vn -0.8819 0.0000 -0.4714
vn -0.7730 0.0000 -0.6344
vn -0.6344 0.0000 -0.7730
vn -0.4714 0.0000 -0.8819
vn 0.0000 1.0000 0.0000
vn -0.2903 0.0000 -0.9569
vn -0.0980 0.0000 -0.9952
vn 0.0000 -1.0000 0.0000
usemtl None
s off
f 1/1/1 2/2/1 4/3/1 3/4/1
f 3/4/2 4/3/2 6/5/2 5/6/2
f 5/6/3 6/5/3 8/7/3 7/8/3
f 7/8/4 8/7/4 10/9/4 9/10/4
f 9/10/5 10/9/5 12/11/5 11/12/5
f 11/12/6 12/11/6 14/13/6 13/14/6
f 13/14/7 14/13/7 16/15/7 15/16/7
f 15/16/8 16/15/8 18/17/8 17/18/8
f 17/18/9 18/17/9 20/19/9 19/20/9
f 19/20/10 20/19/10 22/21/10 21/22/10
f 21/22/11 22/21/11 24/23/11 23/24/11
f 23/24/12 24/23/12 26/25/12 25/26/12
f 25/26/13 26/25/13 28/27/13 27/28/13
f 27/28/14 28/27/14 30/29/14 29/30/14
f 29/30/15 30/29/15 32/31/15 31/32/15
f 31/32/16 32/31/16 34/33/16 33/34/16
f 33/34/17 34/33/17 36/35/17 35/36/17
f 35/36/18 36/35/18 38/37/18 37/38/18
f 37/38/19 38/37/19 40/39/19 39/40/19
f 39/40/20 40/39/20 42/41/20 41/42/20
f 41/42/21 42/41/21 44/43/21 43/44/21
f 43/44/22 44/43/22 46/45/22 45/46/22
f 45/46/23 46/45/23 48/47/23 47/48/23
f 47/48/24 48/47/24 50/49/24 49/50/24
f 49/50/25 50/49/25 52/51/25 51/52/25
f 51/52/26 52/51/26 54/53/26 53/54/26
f 53/54/27 54/53/27 56/55/27 55/56/27
f 55/56/28 56/55/28 58/57/28 57/58/28
f 57/58/29 58/57/29 60/59/29 59/60/29
f 59/60/30 60/59/30 62/61/30 61/62/30
f 4/63/31 2/64/31 64/65/31 62/66/31 60/67/31 58/68/31 56/69/31 54/70/31 52/71/31 50/72/31 48/73/31 46/74/31 44/75/31 42/76/31 40/77/31 38/78/31 36/79/31 34/80/31 32/81/31 30/82/31 28/83/31 26/84/31 24/85/31 22/86/31 20/87/31 18/88/31 16/89/31 14/90/31 12/91/31 10/92/31 8/93/31 6/94/31
f 61/62/32 62/61/32 64/95/32 63/96/32
f 63/96/33 64/95/33 2/97/33 1/98/33
f 1/99/34 3/100/34 5/101/34 7/102/34 9/103/34 11/104/34 13/105/34 15/106/34 17/107/34 19/108/34 21/109/34 23/110/34 25/111/34 27/112/34 29/113/34 31/114/34 33/115/34 35/116/34 37/117/34 39/118/34 41/119/34 43/120/34 45/121/34 47/122/34 49/123/34 51/124/34 53/125/34 55/126/34 57/127/34 59/128/34 61/129/34 63/130/34
o Cylinder.001_Cylinder.003
v 0.000000 0.150000 -2.000000
v 0.000000 0.150000 0.000000
v 0.029264 0.147118 -2.000000
v 0.029264 0.147118 0.000000
v 0.057403 0.138582 -2.000000
v 0.057403 0.138582 0.000000
v 0.083336 0.124720 -2.000000
v 0.083336 0.124720 0.000000
v 0.106066 0.106066 -2.000000
v 0.106066 0.106066 0.000000
v 0.124720 0.083336 -2.000000
v 0.124720 0.083335 0.000000
v 0.138582 0.057403 -2.000000
v 0.138582 0.057402 0.000000
v 0.147118 0.029264 -2.000000
v 0.147118 0.029264 0.000000
v 0.150000 0.000000 -2.000000
v 0.150000 -0.000000 0.000000
v 0.147118 -0.029264 -2.000000
v 0.147118 -0.029264 0.000000
v 0.138582 -0.057402 -2.000000
v 0.138582 -0.057403 0.000000
v 0.124720 -0.083335 -2.000000
v 0.124720 -0.083336 0.000000
v 0.106066 -0.106066 -2.000000
v 0.106066 -0.106066 0.000000
v 0.083336 -0.124720 -2.000000
v 0.083336 -0.124720 0.000000
v 0.057403 -0.138582 -2.000000
v 0.057403 -0.138582 0.000000
v 0.029264 -0.147118 -2.000000
v 0.029264 -0.147118 0.000000
v -0.000000 -0.150000 -2.000000
v -0.000000 -0.150000 0.000000
v -0.029264 -0.147118 -2.000000
v -0.029264 -0.147118 0.000000
v -0.057403 -0.138582 -2.000000
v -0.057403 -0.138582 0.000000
v -0.083336 -0.124720 -2.000000
v -0.083336 -0.124720 0.000000
v -0.106066 -0.106066 -2.000000
v -0.106066 -0.106066 0.000000
v -0.124720 -0.083336 -2.000000
v -0.124720 -0.083336 0.000000
v -0.138582 -0.057402 -2.000000
v -0.138582 -0.057403 0.000000
v -0.147118 -0.029264 -2.000000
v -0.147118 -0.029264 0.000000
v -0.150000 0.000000 -2.000000
v -0.150000 -0.000000 0.000000
v -0.147118 0.029264 -2.000000
v -0.147118 0.029264 0.000000
v -0.138582 0.057403 -2.000000
v -0.138582 0.057402 0.000000
v -0.124720 0.083336 -2.000000
v -0.124720 0.083335 0.000000
v -0.106066 0.106066 -2.000000
v -0.106066 0.106066 0.000000
v -0.083336 0.124720 -2.000000
v -0.083336 0.124720 0.000000
v -0.057403 0.138582 -2.000000
v -0.057403 0.138582 0.000000
v -0.029264 0.147118 -2.000000
v -0.029264 0.147118 0.000000
vt 1.000000 0.500000
vt 1.000000 1.000000
vt 0.968750 1.000000
vt 0.968750 0.500000
vt 0.937500 1.000000
vt 0.937500 0.500000
vt 0.906250 1.000000
vt 0.906250 0.500000
vt 0.875000 1.000000
vt 0.875000 0.500000
vt 0.843750 1.000000
vt 0.843750 0.500000
vt 0.812500 1.000000
vt 0.812500 0.500000
vt 0.781250 1.000000
vt 0.781250 0.500000
vt 0.750000 1.000000
vt 0.750000 0.500000
vt 0.718750 1.000000
vt 0.718750 0.500000
vt 0.687500 1.000000
vt 0.687500 0.500000
vt 0.656250 1.000000
vt 0.656250 0.500000
vt 0.625000 1.000000
vt 0.625000 0.500000
vt 0.593750 1.000000
vt 0.593750 0.500000
vt 0.562500 1.000000
vt 0.562500 0.500000
vt 0.531250 1.000000
vt 0.531250 0.500000
vt 0.500000 1.000000
vt 0.500000 0.500000
vt 0.468750 1.000000
vt 0.468750 0.500000
vt 0.437500 1.000000
vt 0.437500 0.500000
vt 0.406250 1.000000
vt 0.406250 0.500000
vt 0.375000 1.000000
vt 0.375000 0.500000
vt 0.343750 1.000000
vt 0.343750 0.500000
vt 0.312500 1.000000
vt 0.312500 0.500000
vt 0.281250 1.000000
vt 0.281250 0.500000
vt 0.250000 1.000000
vt 0.250000 0.500000
vt 0.218750 1.000000
vt 0.218750 0.500000
vt 0.187500 1.000000
vt 0.187500 0.500000
vt 0.156250 1.000000
vt 0.156250 0.500000
vt 0.125000 1.000000
vt 0.125000 0.500000
vt 0.093750 1.000000
vt 0.093750 0.500000
vt 0.062500 1.000000
vt 0.062500 0.500000
vt 0.296822 0.485388
vt 0.250000 0.490000
vt 0.203178 0.485388
vt 0.158156 0.471731
vt 0.116663 0.449553
vt 0.080294 0.419706
vt 0.050447 0.383337
vt 0.028269 0.341844
vt 0.014612 0.296822
vt 0.010000 0.250000
vt 0.014612 0.203178
vt 0.028269 0.158156
vt 0.050447 0.116663
vt 0.080294 0.080294
vt 0.116663 0.050447
vt 0.158156 0.028269
vt 0.203178 0.014612
vt 0.250000 0.010000
vt 0.296822 0.014612
vt 0.341844 0.028269
vt 0.383337 0.050447
vt 0.419706 0.080294
vt 0.449553 0.116663
vt 0.471731 0.158156
vt 0.485388 0.203178
vt 0.490000 0.250000
vt 0.485388 0.296822
vt 0.471731 0.341844
vt 0.449553 0.383337
vt 0.419706 0.419706
vt 0.383337 0.449553
vt 0.341844 0.471731
vt 0.031250 1.000000
vt 0.031250 0.500000
vt 0.000000 1.000000
vt 0.000000 0.500000
vt 0.750000 0.490000
vt 0.796822 0.485388
vt 0.841844 0.471731
vt 0.883337 0.449553
vt 0.919706 0.419706
vt 0.949553 0.383337
vt 0.971731 0.341844
vt 0.985388 0.296822
vt 0.990000 0.250000
vt 0.985388 0.203178
vt 0.971731 0.158156
vt 0.949553 0.116663
vt 0.919706 0.080294
vt 0.883337 0.050447
vt 0.841844 0.028269
vt 0.796822 0.014612
vt 0.750000 0.010000
vt 0.703178 0.014612
vt 0.658156 0.028269
vt 0.616663 0.050447
vt 0.580294 0.080294
vt 0.550447 0.116663
vt 0.528269 0.158156
vt 0.514612 0.203178
vt 0.510000 0.250000
vt 0.514612 0.296822
vt 0.528269 0.341844
vt 0.550447 0.383337
vt 0.580294 0.419706
vt 0.616663 0.449553
vt 0.658156 0.471731
vt 0.703178 0.485388
vn 0.0980 0.9952 0.0000
vn 0.2903 0.9569 0.0000
vn 0.4714 0.8819 0.0000
vn 0.6344 0.7730 0.0000
vn 0.7730 0.6344 0.0000
vn 0.8819 0.4714 0.0000
vn 0.9569 0.2903 0.0000
vn 0.9952 0.0980 0.0000
vn 0.9952 -0.0980 -0.0000
vn 0.9569 -0.2903 -0.0000
vn 0.8819 -0.4714 -0.0000
vn 0.7730 -0.6344 -0.0000
vn 0.6344 -0.7730 -0.0000
vn 0.4714 -0.8819 -0.0000
vn 0.2903 -0.9569 -0.0000
vn 0.0980 -0.9952 -0.0000
vn -0.0980 -0.9952 -0.0000
vn -0.2903 -0.9569 -0.0000
vn -0.4714 -0.8819 -0.0000
vn -0.6344 -0.7730 -0.0000
vn -0.7730 -0.6344 -0.0000
vn -0.8819 -0.4714 -0.0000
vn -0.9569 -0.2903 -0.0000
vn -0.9952 -0.0980 -0.0000
vn -0.9952 0.0980 0.0000
vn -0.9569 0.2903 0.0000
vn -0.8819 0.4714 0.0000
vn -0.7730 0.6344 0.0000
vn -0.6344 0.7730 0.0000
vn -0.4714 0.8819 0.0000
vn 0.0000 0.0000 1.0000
vn -0.2903 0.9569 0.0000
vn -0.0980 0.9952 0.0000
vn -0.0000 0.0000 -1.0000
usemtl None
s off
f 65/131/35 66/132/35 68/133/35 67/134/35
f 67/134/36 68/133/36 70/135/36 69/136/36
f 69/136/37 70/135/37 72/137/37 71/138/37
f 71/138/38 72/137/38 74/139/38 73/140/38
f 73/140/39 74/139/39 76/141/39 75/142/39
f 75/142/40 76/141/40 78/143/40 77/144/40
f 77/144/41 78/143/41 80/145/41 79/146/41
f 79/146/42 80/145/42 82/147/42 81/148/42
f 81/148/43 82/147/43 84/149/43 83/150/43
f 83/150/44 84/149/44 86/151/44 85/152/44
f 85/152/45 86/151/45 88/153/45 87/154/45
f 87/154/46 88/153/46 90/155/46 89/156/46
f 89/156/47 90/155/47 92/157/47 91/158/47
f 91/158/48 92/157/48 94/159/48 93/160/48
f 93/160/49 94/159/49 96/161/49 95/162/49
f 95/162/50 96/161/50 98/163/50 97/164/50
f 97/164/51 98/163/51 100/165/51 99/166/51
f 99/166/52 100/165/52 102/167/52 101/168/52
f 101/168/53 102/167/53 104/169/53 103/170/53
f 103/170/54 104/169/54 106/171/54 105/172/54
f 105/172/55 106/171/55 108/173/55 107/174/55
f 107/174/56 108/173/56 110/175/56 109/176/56
f 109/176/57 110/175/57 112/177/57 111/178/57
f 111/178/58 112/177/58 114/179/58 113/180/58
f 113/180/59 114/179/59 116/181/59 115/182/59
f 115/182/60 116/181/60 118/183/60 117/184/60
f 117/184/61 118/183/61 120/185/61 119/186/61
f 119/186/62 120/185/62 122/187/62 121/188/62
f 121/188/63 122/187/63 124/189/63 123/190/63
f 123/190/64 124/189/64 126/191/64 125/192/64
f 68/193/65 66/194/65 128/195/65 126/196/65 124/197/65 122/198/65 120/199/65 118/200/65 116/201/65 114/202/65 112/203/65 110/204/65 108/205/65 106/206/65 104/207/65 102/208/65 100/209/65 98/210/65 96/211/65 94/212/65 92/213/65 90/214/65 88/215/65 86/216/65 84/217/65 82/218/65 80/219/65 78/220/65 76/221/65 74/222/65 72/223/65 70/224/65
f 125/192/66 126/191/66 128/225/66 127/226/66
f 127/226/67 128/225/67 66/227/67 65/228/67
f 65/229/68 67/230/68 69/231/68 71/232/68 73/233/68 75/234/68 77/235/68 79/236/68 81/237/68 83/238/68 85/239/68 87/240/68 89/241/68 91/242/68 93/243/68 95/244/68 97/245/68 99/246/68 101/247/68 103/248/68 105/249/68 107/250/68 109/251/68 111/252/68 113/253/68 115/254/68 117/255/68 119/256/68 121/257/68 123/258/68 125/259/68 127/260/68
o Cylinder.002_Cylinder.004
v 0.000000 0.000000 -0.150000
v 2.000000 -0.000000 -0.150000
v 0.000000 -0.029264 -0.147118
v 2.000000 -0.029264 -0.147118
v 0.000000 -0.057402 -0.138582
v 2.000000 -0.057403 -0.138582
v 0.000000 -0.083335 -0.124720
v 2.000000 -0.083336 -0.124720
v 0.000000 -0.106066 -0.106066
v 2.000000 -0.106066 -0.106066
v 0.000000 -0.124720 -0.083336
v 2.000000 -0.124720 -0.083336
v 0.000000 -0.138582 -0.057403
v 2.000000 -0.138582 -0.057403
v 0.000000 -0.147118 -0.029264
v 2.000000 -0.147118 -0.029264
v 0.000000 -0.150000 0.000000
v 2.000000 -0.150000 0.000000
v 0.000000 -0.147118 0.029264
v 2.000000 -0.147118 0.029264
v 0.000000 -0.138582 0.057403
v 2.000000 -0.138582 0.057403
v 0.000000 -0.124720 0.083336
v 2.000000 -0.124720 0.083336
v 0.000000 -0.106066 0.106066
v 2.000000 -0.106066 0.106066
v 0.000000 -0.083335 0.124720
v 2.000000 -0.083336 0.124720
v 0.000000 -0.057402 0.138582
v 2.000000 -0.057403 0.138582
v 0.000000 -0.029264 0.147118
v 2.000000 -0.029264 0.147118
v 0.000000 0.000000 0.150000
v 2.000000 -0.000000 0.150000
v 0.000000 0.029264 0.147118
v 2.000000 0.029263 0.147118
v 0.000000 0.057403 0.138582
v 2.000000 0.057402 0.138582
v 0.000000 0.083336 0.124720
v 2.000000 0.083336 0.124720
v 0.000000 0.106066 0.106066
v 2.000000 0.106066 0.106066
v 0.000000 0.124720 0.083336
v 2.000000 0.124720 0.083336
v 0.000000 0.138582 0.057403
v 2.000000 0.138582 0.057403
v 0.000000 0.147118 0.029264
v 2.000000 0.147118 0.029264
v 0.000000 0.150000 -0.000000
v 2.000000 0.150000 -0.000000
v 0.000000 0.147118 -0.029264
v 2.000000 0.147118 -0.029264
v 0.000000 0.138582 -0.057403
v 2.000000 0.138582 -0.057403
v 0.000000 0.124721 -0.083336
v 2.000000 0.124720 -0.083336
v 0.000000 0.106066 -0.106066
v 2.000000 0.106066 -0.106066
v 0.000000 0.083336 -0.124720
v 2.000000 0.083336 -0.124720
v 0.000000 0.057403 -0.138582
v 2.000000 0.057402 -0.138582
v 0.000000 0.029264 -0.147118
v 2.000000 0.029263 -0.147118
vt 1.000000 0.500000
vt 1.000000 1.000000
vt 0.968750 1.000000
vt 0.968750 0.500000
vt 0.937500 1.000000
vt 0.937500 0.500000
vt 0.906250 1.000000
vt 0.906250 0.500000
vt 0.875000 1.000000
vt 0.875000 0.500000
vt 0.843750 1.000000
vt 0.843750 0.500000
vt 0.812500 1.000000
vt 0.812500 0.500000
vt 0.781250 1.000000
vt 0.781250 0.500000
vt 0.750000 1.000000
vt 0.750000 0.500000
vt 0.718750 1.000000
vt 0.718750 0.500000
vt 0.687500 1.000000
vt 0.687500 0.500000
vt 0.656250 1.000000
vt 0.656250 0.500000
vt 0.625000 1.000000
vt 0.625000 0.500000
vt 0.593750 1.000000
vt 0.593750 0.500000
vt 0.562500 1.000000
vt 0.562500 0.500000
vt 0.531250 1.000000
vt 0.531250 0.500000
vt 0.500000 1.000000
vt 0.500000 0.500000
vt 0.468750 1.000000
vt 0.468750 0.500000
vt 0.437500 1.000000
vt 0.437500 0.500000
vt 0.406250 1.000000
vt 0.406250 0.500000
vt 0.375000 1.000000
vt 0.375000 0.500000
vt 0.343750 1.000000
vt 0.343750 0.500000
vt 0.312500 1.000000
vt 0.312500 0.500000
vt 0.281250 1.000000
vt 0.281250 0.500000
vt 0.250000 1.000000
vt 0.250000 0.500000
vt 0.218750 1.000000
vt 0.218750 0.500000
vt 0.187500 1.000000
vt 0.187500 0.500000
vt 0.156250 1.000000
vt 0.156250 0.500000
vt 0.125000 1.000000
vt 0.125000 0.500000
vt 0.093750 1.000000
vt 0.093750 0.500000
vt 0.062500 1.000000
vt 0.062500 0.500000
vt 0.296822 0.485388
vt 0.250000 0.490000
vt 0.203178 0.485388
vt 0.158156 0.471731
vt 0.116663 0.449553
vt 0.080294 0.419706
vt 0.050447 0.383337
vt 0.028269 0.341844
vt 0.014612 0.296822
vt 0.010000 0.250000
vt 0.014612 0.203178
vt 0.028269 0.158156
vt 0.050447 0.116663
vt 0.080294 0.080294
vt 0.116663 0.050447
vt 0.158156 0.028269
vt 0.203178 0.014612
vt 0.250000 0.010000
vt 0.296822 0.014612
vt 0.341844 0.028269
vt 0.383337 0.050447
vt 0.419706 0.080294
vt 0.449553 0.116663
vt 0.471731 0.158156
vt 0.485388 0.203178
vt 0.490000 0.250000
vt 0.485388 0.296822
vt 0.471731 0.341844
vt 0.449553 0.383337
vt 0.419706 0.419706
vt 0.383337 0.449553
vt 0.341844 0.471731
vt 0.031250 1.000000
vt 0.031250 0.500000
vt 0.000000 1.000000
vt 0.000000 0.500000
vt 0.750000 0.490000
vt 0.796822 0.485388
vt 0.841844 0.471731
vt 0.883337 0.449553
vt 0.919706 0.419706
vt 0.949553 0.383337
vt 0.971731 0.341844
vt 0.985388 0.296822
vt 0.990000 0.250000
vt 0.985388 0.203178
vt 0.971731 0.158156
vt 0.949553 0.116663
vt 0.919706 0.080294
vt 0.883337 0.050447
vt 0.841844 0.028269
vt 0.796822 0.014612
vt 0.750000 0.010000
vt 0.703178 0.014612
vt 0.658156 0.028269
vt 0.616663 0.050447
vt 0.580294 0.080294
vt 0.550447 0.116663
vt 0.528269 0.158156
vt 0.514612 0.203178
vt 0.510000 0.250000
vt 0.514612 0.296822
vt 0.528269 0.341844
vt 0.550447 0.383337
vt 0.580294 0.419706
vt 0.616663 0.449553
vt 0.658156 0.471731
vt 0.703178 0.485388
vn -0.0000 -0.0980 -0.9952
vn -0.0000 -0.2903 -0.9569
vn -0.0000 -0.4714 -0.8819
vn -0.0000 -0.6344 -0.7730
vn -0.0000 -0.7730 -0.6344
vn -0.0000 -0.8819 -0.4714
vn -0.0000 -0.9569 -0.2903
vn -0.0000 -0.9952 -0.0980
vn -0.0000 -0.9952 0.0980
vn -0.0000 -0.9569 0.2903
vn -0.0000 -0.8819 0.4714
vn -0.0000 -0.7730 0.6344
vn -0.0000 -0.6344 0.7730
vn -0.0000 -0.4714 0.8819
vn -0.0000 -0.2903 0.9569
vn -0.0000 -0.0980 0.9952
vn -0.0000 0.0980 0.9952
vn 0.0000 0.2903 0.9569
vn 0.0000 0.4714 0.8819
vn 0.0000 0.6344 0.7730
vn 0.0000 0.7730 0.6344
vn 0.0000 0.8819 0.4714
vn 0.0000 0.9569 0.2903
vn 0.0000 0.9952 0.0980
vn 0.0000 0.9952 -0.0980
vn 0.0000 0.9569 -0.2903
vn 0.0000 0.8819 -0.4714
vn 0.0000 0.7730 -0.6344
vn 0.0000 0.6344 -0.7730
vn 0.0000 0.4714 -0.8819
vn 1.0000 0.0000 0.0000
vn 0.0000 0.2903 -0.9569
vn 0.0000 0.0980 -0.9952
vn -1.0000 0.0000 0.0000
usemtl None
s off
f 129/261/69 130/262/69 132/263/69 131/264/69
f 131/264/70 132/263/70 134/265/70 133/266/70
f 133/266/71 134/265/71 136/267/71 135/268/71
f 135/268/72 136/267/72 138/269/72 137/270/72
f 137/270/73 138/269/73 140/271/73 139/272/73
f 139/272/74 140/271/74 142/273/74 141/274/74
f 141/274/75 142/273/75 144/275/75 143/276/75
f 143/276/76 144/275/76 146/277/76 145/278/76
f 145/278/77 146/277/77 148/279/77 147/280/77
f 147/280/78 148/279/78 150/281/78 149/282/78
f 149/282/79 150/281/79 152/283/79 151/284/79
f 151/284/80 152/283/80 154/285/80 153/286/80
f 153/286/81 154/285/81 156/287/81 155/288/81
f 155/288/82 156/287/82 158/289/82 157/290/82
f 157/290/83 158/289/83 160/291/83 159/292/83
f 159/292/84 160/291/84 162/293/84 161/294/84
f 161/294/85 162/293/85 164/295/85 163/296/85
f 163/296/86 164/295/86 166/297/86 165/298/86
f 165/298/87 166/297/87 168/299/87 167/300/87
f 167/300/88 168/299/88 170/301/88 169/302/88
f 169/302/89 170/301/89 172/303/89 171/304/89
f 171/304/90 172/303/90 174/305/90 173/306/90
f 173/306/91 174/305/91 176/307/91 175/308/91
f 175/308/92 176/307/92 178/309/92 177/310/92
f 177/310/93 178/309/93 180/311/93 179/312/93
f 179/312/94 180/311/94 182/313/94 181/314/94
f 181/314/95 182/313/95 184/315/95 183/316/95
f 183/316/96 184/315/96 186/317/96 185/318/96
f 185/318/97 186/317/97 188/319/97 187/320/97
f 187/320/98 188/319/98 190/321/98 189/322/98
f 132/323/99 130/324/99 192/325/99 190/326/99 188/327/99 186/328/99 184/329/99 182/330/99 180/331/99 178/332/99 176/333/99 174/334/99 172/335/99 170/336/99 168/337/99 166/338/99 164/339/99 162/340/99 160/341/99 158/342/99 156/343/99 154/344/99 152/345/99 150/346/99 148/347/99 146/348/99 144/349/99 142/350/99 140/351/99 138/352/99 136/353/99 134/354/99
f 189/322/100 190/321/100 192/355/100 191/356/100
f 191/356/101 192/355/101 130/357/101 129/358/101
f 129/359/102 131/360/102 133/361/102 135/362/102 137/363/102 139/364/102 141/365/102 143/366/102 145/367/102 147/368/102 149/369/102 151/370/102 153/371/102 155/372/102 157/373/102 159/374/102 161/375/102 163/376/102 165/377/102 167/378/102 169/379/102 171/380/102 173/381/102 175/382/102 177/383/102 179/384/102 181/385/102 183/386/102 185/387/102 187/388/102 189/389/102 191/390/102
o Icosphere
v 0.000000 -0.300000 0.000000
v 0.217082 -0.134166 0.157718
v -0.082916 -0.134166 0.255195
v -0.268328 -0.134165 0.000000
v -0.082916 -0.134166 -0.255195
v 0.217082 -0.134166 -0.157718
v 0.082916 0.134166 0.255195
v -0.217082 0.134166 0.157718
v -0.217082 0.134166 -0.157718
v 0.082916 0.134166 -0.255195
v 0.268328 0.134165 0.000000
v 0.000000 0.300000 0.000000
v -0.048737 -0.255196 0.149999
v 0.127597 -0.255196 0.092703
v 0.078861 -0.157721 0.242703
v 0.255194 -0.157721 0.000000
v 0.127597 -0.255196 -0.092703
v -0.157719 -0.255196 0.000000
v -0.206457 -0.157721 0.149999
v -0.048737 -0.255196 -0.149999
v -0.206457 -0.157721 -0.149999
v 0.078861 -0.157721 -0.242703
v 0.285317 0.000000 0.092704
v 0.285317 0.000000 -0.092704
v 0.000000 0.000000 0.300000
v 0.176336 0.000000 0.242705
v -0.285317 0.000000 0.092704
v -0.176336 0.000000 0.242705
v -0.176336 0.000000 -0.242705
v -0.285317 0.000000 -0.092704
v 0.176336 0.000000 -0.242705
v 0.000000 0.000000 -0.300000
v 0.206457 0.157721 0.149999
v -0.078861 0.157721 0.242703
v -0.255194 0.157721 0.000000
v -0.078861 0.157721 -0.242703
v 0.206457 0.157721 -0.149999
v 0.048737 0.255196 0.149999
v 0.157719 0.255196 0.000000
v -0.127597 0.255196 0.092703
v -0.127597 0.255196 -0.092703
v 0.048737 0.255196 -0.149999
vt 0.181819 0.000000
vt 0.227273 0.078731
vt 0.136365 0.078731
vt 0.272728 0.157461
vt 0.318182 0.078731
vt 0.363637 0.157461
vt 0.909091 0.000000
vt 0.954545 0.078731
vt 0.863636 0.078731
vt 0.727273 0.000000
vt 0.772727 0.078731
vt 0.681818 0.078731
vt 0.545455 0.000000
vt 0.590909 0.078731
vt 0.500000 0.078731
vt 0.318182 0.236191
vt 0.090910 0.157461
vt 0.181819 0.157461
vt 0.136365 0.236191
vt 0.818182 0.157461
vt 0.909091 0.157461
vt 0.863636 0.236191
vt 0.636364 0.157461
vt 0.727273 0.157461
vt 0.681818 0.236191
vt 0.454546 0.157461
vt 0.545455 0.157461
vt 0.500000 0.236191
vt 0.227273 0.236191
vt 0.045455 0.236191
vt 0.772727 0.236191
vt 0.590909 0.236191
vt 0.409092 0.236191
vt 0.181819 0.314921
vt 0.272728 0.314921
vt 0.227273 0.393651
vt 0.000000 0.314921
vt 0.090910 0.314921
vt 0.045455 0.393651
vt 0.727273 0.314921
vt 0.818182 0.314921
vt 0.772727 0.393651
vt 0.545455 0.314921
vt 0.636364 0.314921
vt 0.590909 0.393651
vt 0.363637 0.314921
vt 0.454546 0.314921
vt 0.409092 0.393651
vt 0.500000 0.393651
vt 0.454546 0.472382
vt 0.681818 0.393651
vt 0.636364 0.472382
vt 0.863636 0.393651
vt 0.818182 0.472382
vt 0.909091 0.314921
vt 0.136365 0.393651
vt 0.090910 0.472382
vt 0.318182 0.393651
vt 0.272728 0.472382
vt 0.954545 0.236191
vt 1.000000 0.157461
vt 0.409092 0.078731
vt 0.363637 0.000000
vn 0.1024 -0.9435 0.3151
vn 0.7002 -0.6617 0.2680
vn -0.2680 -0.9435 0.1947
vn -0.2680 -0.9435 -0.1947
vn 0.1024 -0.9435 -0.3151
vn 0.9050 -0.3304 0.2680
vn 0.0247 -0.3304 0.9435
vn -0.8897 -0.3304 0.3151
vn -0.5746 -0.3304 -0.7488
vn 0.5346 -0.3304 -0.7779
vn 0.8026 -0.1256 0.5831
vn -0.3066 -0.1256 0.9435
vn -0.9921 -0.1256 0.0000
vn -0.3066 -0.1256 -0.9435
vn 0.8026 -0.1256 -0.5831
vn 0.4089 0.6617 0.6284
vn -0.4713 0.6617 0.5831
vn -0.7002 0.6617 -0.2680
vn 0.0385 0.6617 -0.7488
vn 0.7240 0.6617 -0.1947
vn 0.2680 0.9435 -0.1947
vn 0.4911 0.7947 -0.3568
vn 0.4089 0.6617 -0.6284
vn -0.1024 0.9435 -0.3151
vn -0.1876 0.7947 -0.5773
vn -0.4713 0.6617 -0.5831
vn -0.3313 0.9435 0.0000
vn -0.6071 0.7947 0.0000
vn -0.7002 0.6617 0.2680
vn -0.1024 0.9435 0.3151
vn -0.1876 0.7947 0.5773
vn 0.0385 0.6617 0.7488
vn 0.2680 0.9435 0.1947
vn 0.4911 0.7947 0.3568
vn 0.7240 0.6617 0.1947
vn 0.8897 0.3304 -0.3151
vn 0.7947 0.1876 -0.5773
vn 0.5746 0.3304 -0.7488
vn -0.0247 0.3304 -0.9435
vn -0.3035 0.1876 -0.9342
vn -0.5346 0.3304 -0.7779
vn -0.9050 0.3304 -0.2680
vn -0.9822 0.1876 0.0000
vn -0.9050 0.3304 0.2680
vn -0.5346 0.3304 0.7779
vn -0.3035 0.1876 0.9342
vn -0.0247 0.3304 0.9435
vn 0.5746 0.3304 0.7488
vn 0.7947 0.1876 0.5773
vn 0.8897 0.3304 0.3151
vn 0.3066 0.1256 -0.9435
vn 0.3035 -0.1876 -0.9342
vn 0.0247 -0.3304 -0.9435
vn -0.8026 0.1256 -0.5831
vn -0.7947 -0.1876 -0.5773
vn -0.8897 -0.3304 -0.3151
vn -0.8026 0.1256 0.5831
vn -0.7947 -0.1876 0.5773
vn -0.5746 -0.3304 0.7488
vn 0.3066 0.1256 0.9435
vn 0.3035 -0.1876 0.9342
vn 0.5346 -0.3304 0.7779
vn 0.9921 0.1256 0.0000
vn 0.9822 -0.1876 0.0000
vn 0.9050 -0.3304 -0.2680
vn 0.4713 -0.6617 -0.5831
vn 0.1876 -0.7947 -0.5773
vn -0.0385 -0.6617 -0.7488
vn -0.4089 -0.6617 -0.6284
vn -0.4911 -0.7947 -0.3568
vn -0.7240 -0.6617 -0.1947
vn -0.7240 -0.6617 0.1947
vn -0.4911 -0.7947 0.3568
vn -0.4089 -0.6617 0.6284
vn 0.7002 -0.6617 -0.2680
vn 0.6071 -0.7947 0.0000
vn 0.3313 -0.9435 0.0000
vn -0.0385 -0.6617 0.7488
vn 0.1876 -0.7947 0.5773
vn 0.4713 -0.6617 0.5831
usemtl None
s off
f 193/391/103 206/392/103 205/393/103
f 194/394/104 206/395/104 208/396/104
f 193/397/105 205/398/105 210/399/105
f 193/400/106 210/401/106 212/402/106
f 193/403/107 212/404/107 209/405/107
f 194/394/108 208/396/108 215/406/108
f 195/407/109 207/408/109 217/409/109
f 196/410/110 211/411/110 219/412/110
f 197/413/111 213/414/111 221/415/111
f 198/416/112 214/417/112 223/418/112
f 194/394/113 215/406/113 218/419/113
f 195/407/114 217/409/114 220/420/114
f 196/410/115 219/412/115 222/421/115
f 197/413/116 221/415/116 224/422/116
f 198/416/117 223/418/117 216/423/117
f 199/424/118 225/425/118 230/426/118
f 200/427/119 226/428/119 232/429/119
f 201/430/120 227/431/120 233/432/120
f 202/433/121 228/434/121 234/435/121
f 203/436/122 229/437/122 231/438/122
f 231/438/123 234/439/123 204/440/123
f 231/438/124 229/437/124 234/439/124
f 229/437/125 202/433/125 234/439/125
f 234/435/126 233/441/126 204/442/126
f 234/435/127 228/434/127 233/441/127
f 228/434/128 201/430/128 233/441/128
f 233/432/129 232/443/129 204/444/129
f 233/432/130 227/431/130 232/443/130
f 227/431/131 200/445/131 232/443/131
f 232/429/132 230/446/132 204/447/132
f 232/429/133 226/428/133 230/446/133
f 226/428/134 199/424/134 230/446/134
f 230/426/135 231/448/135 204/449/135
f 230/426/136 225/425/136 231/448/136
f 225/425/137 203/436/137 231/448/137
f 216/423/138 229/437/138 203/436/138
f 216/423/139 223/418/139 229/437/139
f 223/418/140 202/433/140 229/437/140
f 224/422/141 228/434/141 202/433/141
f 224/422/142 221/415/142 228/434/142
f 221/415/143 201/430/143 228/434/143
f 222/421/144 227/431/144 201/430/144
f 222/421/145 219/412/145 227/431/145
f 219/412/146 200/445/146 227/431/146
f 220/420/147 226/428/147 200/427/147
f 220/420/148 217/409/148 226/428/148
f 217/409/149 199/424/149 226/428/149
f 218/419/150 225/425/150 199/424/150
f 218/419/151 215/406/151 225/425/151
f 215/406/152 203/436/152 225/425/152
f 223/418/153 224/422/153 202/433/153
f 223/418/154 214/417/154 224/422/154
f 214/417/155 197/413/155 224/422/155
f 221/415/156 222/421/156 201/430/156
f 221/415/157 213/414/157 222/421/157
f 213/414/158 196/410/158 222/421/158
f 219/412/159 220/450/159 200/445/159
f 219/412/160 211/411/160 220/450/160
f 211/411/161 195/451/161 220/450/161
f 217/409/162 218/419/162 199/424/162
f 217/409/163 207/408/163 218/419/163
f 207/408/164 194/394/164 218/419/164
f 215/406/165 216/423/165 203/436/165
f 215/406/166 208/396/166 216/423/166
f 208/396/167 198/416/167 216/423/167
f 209/405/168 214/417/168 198/416/168
f 209/405/169 212/404/169 214/417/169
f 212/404/170 197/413/170 214/417/170
f 212/402/171 213/414/171 197/413/171
f 212/402/172 210/401/172 213/414/172
f 210/401/173 196/410/173 213/414/173
f 210/399/174 211/411/174 196/410/174
f 210/399/175 205/398/175 211/411/175
f 205/398/176 195/451/176 211/411/176
f 208/396/177 209/452/177 198/416/177
f 208/396/178 206/395/178 209/452/178
f 206/395/179 193/453/179 209/452/179
f 205/393/180 207/408/180 195/407/180
f 205/393/181 206/392/181 207/408/181
f 206/392/182 194/394/182 207/408/182
o Cone
v 0.000000 1.600000 -0.400000
v 0.078036 1.600000 -0.392314
v 0.153073 1.600000 -0.369552
v 0.222228 1.600000 -0.332588
v 0.282843 1.600000 -0.282843
v 0.332588 1.600000 -0.222228
v 0.369552 1.600000 -0.153073
v 0.392314 1.600000 -0.078036
v 0.400000 1.600000 0.000000
v 0.392314 1.600000 0.078036
v 0.369552 1.600000 0.153073
v 0.332588 1.600000 0.222228
v 0.282843 1.600000 0.282843
v 0.222228 1.600000 0.332588
v 0.153073 1.600000 0.369552
v 0.078036 1.600000 0.392314
v -0.000000 1.600000 0.400000
v -0.078036 1.600000 0.392314
v -0.153073 1.600000 0.369552
v -0.222228 1.600000 0.332588
v -0.282843 1.600000 0.282843
v -0.332588 1.600000 0.222228
v -0.369552 1.600000 0.153073
v -0.392314 1.600000 0.078036
v -0.400000 1.600000 -0.000000
v -0.392314 1.600000 -0.078036
v -0.369552 1.600000 -0.153073
v -0.332588 1.600000 -0.222228
v -0.282843 1.600000 -0.282843
v -0.222228 1.600000 -0.332588
v -0.153073 1.600000 -0.369552
v -0.078036 1.600000 -0.392314
v 0.000000 2.400000 0.000000
vt 0.250000 0.490000
vt 0.250000 0.250000
vt 0.296822 0.485388
vt 0.341844 0.471731
vt 0.383337 0.449553
vt 0.419706 0.419706
vt 0.449553 0.383337
vt 0.471731 0.341844
vt 0.485388 0.296822
vt 0.490000 0.250000
vt 0.485388 0.203178
vt 0.471731 0.158156
vt 0.449553 0.116663
vt 0.419706 0.080294
vt 0.383337 0.050447
vt 0.341844 0.028269
vt 0.296822 0.014612
vt 0.250000 0.010000
vt 0.203178 0.014612
vt 0.158156 0.028269
vt 0.116663 0.050447
vt 0.080294 0.080294
vt 0.050447 0.116663
vt 0.028269 0.158156
vt 0.014612 0.203178
vt 0.010000 0.250000
vt 0.014612 0.296822
vt 0.028269 0.341844
vt 0.050447 0.383337
vt 0.080294 0.419706
vt 0.116663 0.449553
vt 0.158156 0.471731
vt 0.750000 0.490000
vt 0.796822 0.485388
vt 0.841844 0.471731
vt 0.883337 0.449553
vt 0.919706 0.419706
vt 0.949553 0.383337
vt 0.971731 0.341844
vt 0.985388 0.296822
vt 0.990000 0.250000
vt 0.985388 0.203178
vt 0.971731 0.158156
vt 0.949553 0.116663
vt 0.919706 0.080294
vt 0.883337 0.050447
vt 0.841844 0.028269
vt 0.796822 0.014612
vt 0.750000 0.010000
vt 0.703178 0.014612
vt 0.658156 0.028269
vt 0.616663 0.050447
vt 0.580294 0.080294
vt 0.550447 0.116663
vt 0.528269 0.158156
vt 0.514612 0.203178
vt 0.510000 0.250000
vt 0.514612 0.296822
vt 0.528269 0.341844
vt 0.550447 0.383337
vt 0.580294 0.419706
vt 0.616663 0.449553
vt 0.658156 0.471731
vt 0.703178 0.485388
vt 0.203178 0.485388
vn 0.0878 0.4455 -0.8910
vn 0.2599 0.4455 -0.8567
vn 0.4220 0.4455 -0.7896
vn 0.5680 0.4455 -0.6921
vn 0.6921 0.4455 -0.5680
vn 0.7896 0.4455 -0.4220
vn 0.8567 0.4455 -0.2599
vn 0.8910 0.4455 -0.0878
vn 0.8910 0.4455 0.0878
vn 0.8567 0.4455 0.2599
vn 0.7896 0.4455 0.4220
vn 0.6921 0.4455 0.5680
vn 0.5680 0.4455 0.6921
vn 0.4220 0.4455 0.7896
vn 0.2599 0.4455 0.8567
vn 0.0878 0.4455 0.8910
vn -0.0878 0.4455 0.8910
vn -0.2599 0.4455 0.8567
vn -0.4220 0.4455 0.7896
vn -0.5680 0.4455 0.6921
vn -0.6921 0.4455 0.5680
vn -0.7896 0.4455 0.4220
vn -0.8567 0.4455 0.2599
vn -0.8910 0.4455 0.0878
vn -0.8910 0.4455 -0.0878
vn -0.8567 0.4455 -0.2599
vn -0.7896 0.4455 -0.4220
vn -0.6921 0.4455 -0.5680
vn -0.5680 0.4455 -0.6921
vn -0.4220 0.4455 -0.7896
vn 0.0000 -1.0000 0.0000
vn -0.2599 0.4455 -0.8567
vn -0.0878 0.4455 -0.8910
usemtl None
s off
f 235/454/183 267/455/183 236/456/183
f 236/456/184 267/455/184 237/457/184
f 237/457/185 267/455/185 238/458/185
f 238/458/186 267/455/186 239/459/186
f 239/459/187 267/455/187 240/460/187
f 240/460/188 267/455/188 241/461/188
f 241/461/189 267/455/189 242/462/189
f 242/462/190 267/455/190 243/463/190
f 243/463/191 267/455/191 244/464/191
f 244/464/192 267/455/192 245/465/192
f 245/465/193 267/455/193 246/466/193
f 246/466/194 267/455/194 247/467/194
f 247/467/195 267/455/195 248/468/195
f 248/468/196 267/455/196 249/469/196
f 249/469/197 267/455/197 250/470/197
f 250/470/198 267/455/198 251/471/198
f 251/471/199 267/455/199 252/472/199
f 252/472/200 267/455/200 253/473/200
f 253/473/201 267/455/201 254/474/201
f 254/474/202 267/455/202 255/475/202
f 255/475/203 267/455/203 256/476/203
f 256/476/204 267/455/204 257/477/204
f 257/477/205 267/455/205 258/478/205
f 258/478/206 267/455/206 259/479/206
f 259/479/207 267/455/207 260/480/207
f 260/480/208 267/455/208 261/481/208
f 261/481/209 267/455/209 262/482/209
f 262/482/210 267/455/210 263/483/210
f 263/483/211 267/455/211 264/484/211
f 264/484/212 267/455/212 265/485/212
f 235/486/213 236/487/213 237/488/213 238/489/213 239/490/213 240/491/213 241/492/213 242/493/213 243/494/213 244/495/213 245/496/213 246/497/213 247/498/213 248/499/213 249/500/213 250/501/213 251/502/213 252/503/213 253/504/213 254/505/213 255/506/213 256/507/213 257/508/213 258/509/213 259/510/213 260/511/213 261/512/213 262/513/213 263/514/213 264/515/213 265/516/213 266/517/213
f 265/485/214 267/455/214 266/518/214
f 266/518/215 267/455/215 235/454/215
o Cone.001
v 1.600000 0.000000 -0.400000
v 1.600000 -0.078036 -0.392314
v 1.600000 -0.153073 -0.369552
v 1.600000 -0.222228 -0.332588
v 1.600000 -0.282843 -0.282843
v 1.600000 -0.332588 -0.222228
v 1.600000 -0.369552 -0.153073
v 1.600000 -0.392314 -0.078036
v 1.600000 -0.400000 0.000000
v 1.600000 -0.392314 0.078036
v 1.600000 -0.369552 0.153073
v 1.600000 -0.332588 0.222228
v 1.600000 -0.282843 0.282843
v 1.600000 -0.222228 0.332588
v 1.600000 -0.153073 0.369552
v 1.600000 -0.078036 0.392314
v 1.600000 0.000000 0.400000
v 1.600000 0.078036 0.392314
v 1.600000 0.153073 0.369552
v 1.600000 0.222228 0.332588
v 1.600000 0.282843 0.282843
v 1.600000 0.332588 0.222228
v 1.600000 0.369552 0.153073
v 1.600000 0.392314 0.078036
v 1.600000 0.400000 -0.000000
v 1.600000 0.392314 -0.078036
v 1.600000 0.369552 -0.153073
v 1.600000 0.332588 -0.222228
v 1.600000 0.282843 -0.282843
v 1.600000 0.222228 -0.332588
v 1.600000 0.153073 -0.369552
v 1.600000 0.078036 -0.392314
v 2.400000 -0.000000 0.000000
vt 0.250000 0.490000
vt 0.250000 0.250000
vt 0.296822 0.485388
vt 0.341844 0.471731
vt 0.383337 0.449553
vt 0.419706 0.419706
vt 0.449553 0.383337
vt 0.471731 0.341844
vt 0.485388 0.296822
vt 0.490000 0.250000
vt 0.485388 0.203178
vt 0.471731 0.158156
vt 0.449553 0.116663
vt 0.419706 0.080294
vt 0.383337 0.050447
vt 0.341844 0.028269
vt 0.296822 0.014612
vt 0.250000 0.010000
vt 0.203178 0.014612
vt 0.158156 0.028269
vt 0.116663 0.050447
vt 0.080294 0.080294
vt 0.050447 0.116663
vt 0.028269 0.158156
vt 0.014612 0.203178
vt 0.010000 0.250000
vt 0.014612 0.296822
vt 0.028269 0.341844
vt 0.050447 0.383337
vt 0.080294 0.419706
vt 0.116663 0.449553
vt 0.158156 0.471731
vt 0.750000 0.490000
vt 0.796822 0.485388
vt 0.841844 0.471731
vt 0.883337 0.449553
vt 0.919706 0.419706
vt 0.949553 0.383337
vt 0.971731 0.341844
vt 0.985388 0.296822
vt 0.990000 0.250000
vt 0.985388 0.203178
vt 0.971731 0.158156
vt 0.949553 0.116663
vt 0.919706 0.080294
vt 0.883337 0.050447
vt 0.841844 0.028269
vt 0.796822 0.014612
vt 0.750000 0.010000
vt 0.703178 0.014612
vt 0.658156 0.028269
vt 0.616663 0.050447
vt 0.580294 0.080294
vt 0.550447 0.116663
vt 0.528269 0.158156
vt 0.514612 0.203178
vt 0.510000 0.250000
vt 0.514612 0.296822
vt 0.528269 0.341844
vt 0.550447 0.383337
vt 0.580294 0.419706
vt 0.616663 0.449553
vt 0.658156 0.471731
vt 0.703178 0.485388
vt 0.203178 0.485388
vn 0.4455 -0.0878 -0.8910
vn 0.4455 -0.2599 -0.8567
vn 0.4455 -0.4220 -0.7896
vn 0.4455 -0.5680 -0.6921
vn 0.4455 -0.6921 -0.5680
vn 0.4455 -0.7896 -0.4220
vn 0.4455 -0.8567 -0.2599
vn 0.4455 -0.8910 -0.0878
vn 0.4455 -0.8910 0.0878
vn 0.4455 -0.8567 0.2599
vn 0.4455 -0.7896 0.4220
vn 0.4455 -0.6921 0.5680
vn 0.4455 -0.5680 0.6921
vn 0.4455 -0.4220 0.7896
vn 0.4455 -0.2599 0.8567
vn 0.4455 -0.0878 0.8910
vn 0.4455 0.0878 0.8910
vn 0.4455 0.2599 0.8567
vn 0.4455 0.4220 0.7896
vn 0.4455 0.5680 0.6921
vn 0.4455 0.6921 0.5680
vn 0.4455 0.7896 0.4220
vn 0.4455 0.8567 0.2599
vn 0.4455 0.8910 0.0878
vn 0.4455 0.8910 -0.0878
vn 0.4455 0.8567 -0.2599
vn 0.4455 0.7896 -0.4220
vn 0.4455 0.6921 -0.5680
vn 0.4455 0.5680 -0.6921
vn 0.4455 0.4220 -0.7896
vn -1.0000 -0.0000 0.0000
vn 0.4455 0.2599 -0.8567
vn 0.4455 0.0878 -0.8910
usemtl None
s off
f 268/519/216 300/520/216 269/521/216
f 269/521/217 300/520/217 270/522/217
f 270/522/218 300/520/218 271/523/218
f 271/523/219 300/520/219 272/524/219
f 272/524/220 300/520/220 273/525/220
f 273/525/221 300/520/221 274/526/221
f 274/526/222 300/520/222 275/527/222
f 275/527/223 300/520/223 276/528/223
f 276/528/224 300/520/224 277/529/224
f 277/529/225 300/520/225 278/530/225
f 278/530/226 300/520/226 279/531/226
f 279/531/227 300/520/227 280/532/227
f 280/532/228 300/520/228 281/533/228
f 281/533/229 300/520/229 282/534/229
f 282/534/230 300/520/230 283/535/230
f 283/535/231 300/520/231 284/536/231
f 284/536/232 300/520/232 285/537/232
f 285/537/233 300/520/233 286/538/233
f 286/538/234 300/520/234 287/539/234
f 287/539/235 300/520/235 288/540/235
f 288/540/236 300/520/236 289/541/236
f 289/541/237 300/520/237 290/542/237
f 290/542/238 300/520/238 291/543/238
f 291/543/239 300/520/239 292/544/239
f 292/544/240 300/520/240 293/545/240
f 293/545/241 300/520/241 294/546/241
f 294/546/242 300/520/242 295/547/242
f 295/547/243 300/520/243 296/548/243
f 296/548/244 300/520/244 297/549/244
f 297/549/245 300/520/245 298/550/245
f 268/551/246 269/552/246 270/553/246 271/554/246 272/555/246 273/556/246 274/557/246 275/558/246 276/559/246 277/560/246 278/561/246 279/562/246 280/563/246 281/564/246 282/565/246 283/566/246 284/567/246 285/568/246 286/569/246 287/570/246 288/571/246 289/572/246 290/573/246 291/574/246 292/575/246 293/576/246 294/577/246 295/578/246 296/579/246 297/580/246 298/581/246 299/582/246
f 298/550/247 300/520/247 299/583/247
f 299/583/248 300/520/248 268/519/248
o Cone.002
v 0.000000 -0.400000 -1.600000
v 0.078036 -0.392314 -1.600000
v 0.153073 -0.369552 -1.600000
v 0.222228 -0.332588 -1.600000
v 0.282843 -0.282843 -1.600000
v 0.332588 -0.222228 -1.600000
v 0.369552 -0.153073 -1.600000
v 0.392314 -0.078036 -1.600000
v 0.400000 0.000000 -1.600000
v 0.392314 0.078036 -1.600000
v 0.369552 0.153073 -1.600000
v 0.332588 0.222228 -1.600000
v 0.282843 0.282843 -1.600000
v 0.222228 0.332588 -1.600000
v 0.153073 0.369552 -1.600000
v 0.078036 0.392314 -1.600000
v -0.000000 0.400000 -1.600000
v -0.078036 0.392314 -1.600000
v -0.153073 0.369552 -1.600000
v -0.222228 0.332588 -1.600000
v -0.282843 0.282843 -1.600000
v -0.332588 0.222228 -1.600000
v -0.369552 0.153073 -1.600000
v -0.392314 0.078036 -1.600000
v -0.400000 0.000000 -1.600000
v -0.392314 -0.078036 -1.600000
v -0.369552 -0.153073 -1.600000
v -0.332588 -0.222228 -1.600000
v -0.282843 -0.282843 -1.600000
v -0.222228 -0.332588 -1.600000
v -0.153073 -0.369552 -1.600000
v -0.078036 -0.392314 -1.600000
v 0.000000 -0.000000 -2.400000
vt 0.250000 0.490000
vt 0.250000 0.250000
vt 0.296822 0.485388
vt 0.341844 0.471731
vt 0.383337 0.449553
vt 0.419706 0.419706
vt 0.449553 0.383337
vt 0.471731 0.341844
vt 0.485388 0.296822
vt 0.490000 0.250000
vt 0.485388 0.203178
vt 0.471731 0.158156
vt 0.449553 0.116663
vt 0.419706 0.080294
vt 0.383337 0.050447
vt 0.341844 0.028269
vt 0.296822 0.014612
vt 0.250000 0.010000
vt 0.203178 0.014612
vt 0.158156 0.028269
vt 0.116663 0.050447
vt 0.080294 0.080294
vt 0.050447 0.116663
vt 0.028269 0.158156
vt 0.014612 0.203178
vt 0.010000 0.250000
vt 0.014612 0.296822
vt 0.028269 0.341844
vt 0.050447 0.383337
vt 0.080294 0.419706
vt 0.116663 0.449553
vt 0.158156 0.471731
vt 0.750000 0.490000
vt 0.796822 0.485388
vt 0.841844 0.471731
vt 0.883337 0.449553
vt 0.919706 0.419706
vt 0.949553 0.383337
vt 0.971731 0.341844
vt 0.985388 0.296822
vt 0.990000 0.250000
vt 0.985388 0.203178
vt 0.971731 0.158156
vt 0.949553 0.116663
vt 0.919706 0.080294
vt 0.883337 0.050447
vt 0.841844 0.028269
vt 0.796822 0.014612
vt 0.750000 0.010000
vt 0.703178 0.014612
vt 0.658156 0.028269
vt 0.616663 0.050447
vt 0.580294 0.080294
vt 0.550447 0.116663
vt 0.528269 0.158156
vt 0.514612 0.203178
vt 0.510000 0.250000
vt 0.514612 0.296822
vt 0.528269 0.341844
vt 0.550447 0.383337
vt 0.580294 0.419706
vt 0.616663 0.449553
vt 0.658156 0.471731
vt 0.703178 0.485388
vt 0.203178 0.485388
vn 0.0878 -0.8910 -0.4455
vn 0.2599 -0.8567 -0.4455
vn 0.4220 -0.7896 -0.4455
vn 0.5680 -0.6921 -0.4455
vn 0.6921 -0.5680 -0.4455
vn 0.7896 -0.4220 -0.4455
vn 0.8567 -0.2599 -0.4455
vn 0.8910 -0.0878 -0.4455
vn 0.8910 0.0878 -0.4455
vn 0.8567 0.2599 -0.4455
vn 0.7896 0.4220 -0.4455
vn 0.6921 0.5680 -0.4455
vn 0.5680 0.6921 -0.4455
vn 0.4220 0.7896 -0.4455
vn 0.2599 0.8567 -0.4455
vn 0.0878 0.8910 -0.4455
vn -0.0878 0.8910 -0.4455
vn -0.2599 0.8567 -0.4455
vn -0.4220 0.7896 -0.4455
vn -0.5680 0.6921 -0.4455
vn -0.6921 0.5680 -0.4455
vn -0.7896 0.4220 -0.4455
vn -0.8567 0.2599 -0.4455
vn -0.8910 0.0878 -0.4455
vn -0.8910 -0.0878 -0.4455
vn -0.8567 -0.2599 -0.4455
vn -0.7896 -0.4220 -0.4455
vn -0.6921 -0.5680 -0.4455
vn -0.5680 -0.6921 -0.4455
vn -0.4220 -0.7896 -0.4455
vn 0.0000 0.0000 1.0000
vn -0.2599 -0.8567 -0.4455
vn -0.0878 -0.8910 -0.4455
usemtl None
s off
f 301/584/249 333/585/249 302/586/249
f 302/586/250 333/585/250 303/587/250
f 303/587/251 333/585/251 304/588/251
f 304/588/252 333/585/252 305/589/252
f 305/589/253 333/585/253 306/590/253
f 306/590/254 333/585/254 307/591/254
f 307/591/255 333/585/255 308/592/255
f 308/592/256 333/585/256 309/593/256
f 309/593/257 333/585/257 310/594/257
f 310/594/258 333/585/258 311/595/258
f 311/595/259 333/585/259 312/596/259
f 312/596/260 333/585/260 313/597/260
f 313/597/261 333/585/261 314/598/261
f 314/598/262 333/585/262 315/599/262
f 315/599/263 333/585/263 316/600/263
f 316/600/264 333/585/264 317/601/264
f 317/601/265 333/585/265 318/602/265
f 318/602/266 333/585/266 319/603/266
f 319/603/267 333/585/267 320/604/267
f 320/604/268 333/585/268 321/605/268
f 321/605/269 333/585/269 322/606/269
f 322/606/270 333/585/270 323/607/270
f 323/607/271 333/585/271 324/608/271
f 324/608/272 333/585/272 325/609/272
f 325/609/273 333/585/273 326/610/273
f 326/610/274 333/585/274 327/611/274
f 327/611/275 333/585/275 328/612/275
f 328/612/276 333/585/276 329/613/276
f 329/613/277 333/585/277 330/614/277
f 330/614/278 333/585/278 331/615/278
f 301/616/279 302/617/279 303/618/279 304/619/279 305/620/279 306/621/279 307/622/279 308/623/279 309/624/279 310/625/279 311/626/279 312/627/279 313/628/279 314/629/279 315/630/279 316/631/279 317/632/279 318/633/279 319/634/279 320/635/279 321/636/279 322/637/279 323/638/279 324/639/279 325/640/279 326/641/279 327/642/279 328/643/279 329/644/279 330/645/279 331/646/279 332/647/279
f 331/615/280 333/585/280 332/648/280
f 332/648/281 333/585/281 301/584/281
